<svg xmlns="http://www.w3.org/2000/svg" xmlns:xlink="http://www.w3.org/1999/xlink" viewBox="0 0 648.99 485.04"><defs><style>.cls-1{fill:url(#radial-gradient);}.cls-2{opacity:0.5;}.cls-15,.cls-16,.cls-18,.cls-19,.cls-20,.cls-21,.cls-28,.cls-29,.cls-3{fill:none;stroke-miterlimit:10;}.cls-3{stroke:#fff;}.cls-15,.cls-16,.cls-18,.cls-19,.cls-20,.cls-21,.cls-3{stroke-width:3px;}.cls-33,.cls-4{fill:#ffff08;}.cls-5{fill:#b5b016;}.cls-6{fill:#fff;}.cls-7{fill:#1e1e1e;}.cls-8{fill:#3f3f3f;}.cls-23,.cls-26,.cls-9{fill:#0071bc;}.cls-10{fill:#0d558d;}.cls-11{fill:#00baa8;}.cls-12{fill:#008474;}.cls-13,.cls-22,.cls-25{fill:#ed1c24;}.cls-14{fill:#b11519;}.cls-15,.cls-20{stroke:#0071bc;}.cls-15,.cls-16,.cls-18,.cls-28{stroke-dasharray:4 4;}.cls-16,.cls-21{stroke:#3dead5;}.cls-17,.cls-24,.cls-27{fill:#3dead5;}.cls-18,.cls-19{stroke:#ed1c24;}.cls-22,.cls-23,.cls-24{font-size:18px;}.cls-22,.cls-23,.cls-24,.cls-25,.cls-26,.cls-27,.cls-30,.cls-31,.cls-33{font-family:Roboto-Black, Roboto;font-weight:800;}.cls-25,.cls-26,.cls-27{font-size:14px;}.cls-28,.cls-29{stroke:#000;stroke-width:1.5px;}.cls-30,.cls-31{font-size:7.82px;}.cls-31{letter-spacing:-0.01em;}.cls-32{letter-spacing:0em;}.cls-33{font-size:16px;}</style><radialGradient id="radial-gradient" cx="324.49" cy="242.52" r="370.06" gradientUnits="userSpaceOnUse"><stop offset="0" stop-color="#a0c93a"/><stop offset="1" stop-color="#77a731"/></radialGradient></defs><title>NC Courage Warmup</title><g id="Layer_2" data-name="Layer 2"><g id="Vector_Graphics" data-name="Vector Graphics"><rect id="Grass" class="cls-1" width="648.99" height="485.04"/><g class="cls-2"><rect class="cls-3" x="117.65" y="-48.43" width="413.69" height="581.89" transform="translate(81.98 567.01) rotate(-90)"/></g><g class="cls-2"><rect class="cls-3" x="117.65" y="-48.43" width="413.69" height="581.89" transform="translate(81.98 567.01) rotate(-90)"/></g><path class="cls-4" d="M78.43,84.33a6,6,0,1,1,6-6A6,6,0,0,1,78.43,84.33Z"/><path class="cls-5" d="M78.43,73.79a4.52,4.52,0,1,1-4.52,4.52,4.52,4.52,0,0,1,4.52-4.52m0-3A7.52,7.52,0,1,0,86,78.31a7.52,7.52,0,0,0-7.52-7.52Z"/><path class="cls-4" d="M78.43,409.59a6,6,0,1,1,6-6A6,6,0,0,1,78.43,409.59Z"/><path class="cls-5" d="M78.43,399a4.53,4.53,0,1,1-4.52,4.53A4.53,4.53,0,0,1,78.43,399m0-3A7.53,7.53,0,1,0,86,403.57,7.53,7.53,0,0,0,78.43,396Z"/><path class="cls-4" d="M565.27,84.33a6,6,0,1,1,6-6A6,6,0,0,1,565.27,84.33Z"/><path class="cls-5" d="M565.27,73.79a4.52,4.52,0,1,1-4.52,4.52,4.52,4.52,0,0,1,4.52-4.52m0-3a7.52,7.52,0,1,0,7.52,7.52,7.52,7.52,0,0,0-7.52-7.52Z"/><path class="cls-4" d="M78.43,248.09a6,6,0,1,1,6-6A6,6,0,0,1,78.43,248.09Z"/><path class="cls-5" d="M78.43,237.54a4.53,4.53,0,1,1-4.52,4.53,4.53,4.53,0,0,1,4.52-4.53m0-3A7.53,7.53,0,1,0,86,242.07a7.53,7.53,0,0,0-7.52-7.53Z"/><path class="cls-4" d="M565.27,248.09a6,6,0,1,1,6-6A6,6,0,0,1,565.27,248.09Z"/><path class="cls-5" d="M565.27,237.54a4.53,4.53,0,1,1-4.52,4.53,4.52,4.52,0,0,1,4.52-4.53m0-3a7.53,7.53,0,1,0,7.52,7.53,7.53,7.53,0,0,0-7.52-7.53Z"/><path class="cls-4" d="M317.14,84.33a6,6,0,1,1,6-6A6,6,0,0,1,317.14,84.33Z"/><path class="cls-5" d="M317.14,73.79a4.52,4.52,0,1,1-4.52,4.52,4.52,4.52,0,0,1,4.52-4.52m0-3a7.52,7.52,0,1,0,7.52,7.52,7.52,7.52,0,0,0-7.52-7.52Z"/><path class="cls-4" d="M317.14,409.59a6,6,0,1,1,6-6A6,6,0,0,1,317.14,409.59Z"/><path class="cls-5" d="M317.14,399a4.53,4.53,0,1,1-4.52,4.53,4.52,4.52,0,0,1,4.52-4.53m0-3a7.53,7.53,0,1,0,7.52,7.53,7.53,7.53,0,0,0-7.52-7.53Z"/><path class="cls-4" d="M565.27,409.59a6,6,0,1,1,6-6A6,6,0,0,1,565.27,409.59Z"/><path class="cls-5" d="M565.27,399a4.53,4.53,0,1,1-4.52,4.53,4.52,4.52,0,0,1,4.52-4.53m0-3a7.53,7.53,0,1,0,7.52,7.53,7.53,7.53,0,0,0-7.52-7.53Z"/><circle class="cls-6" cx="363.03" cy="350.48" r="12.97"/><path class="cls-7" d="M363,339a11.48,11.48,0,1,1-11.47,11.48A11.48,11.48,0,0,1,363,339m0-3a14.48,14.48,0,1,0,14.47,14.48A14.49,14.49,0,0,0,363,336Z"/><path class="cls-8" d="M359.23,356.4l.1-.17,1.22-2-1.81,1.53-.23.19-3.12-.36a9.33,9.33,0,0,1-1.8-3.73,9.69,9.69,0,0,0,1.31,4.33l-.45,1.93a11.34,11.34,0,0,0,4,2.91l2.26-1.37Z"/><path class="cls-8" d="M372.92,344.67l-2-.17a9.67,9.67,0,0,0-4.48-2.92l-1-2.31a11.43,11.43,0,0,0-4.94,0l-.77,1.84a9.65,9.65,0,0,0-4.13,3.32,9.45,9.45,0,0,1,4.18-2.55l2.76,1.56,0,.24L363,346l.39-2.33,0-.24,3.06-1.73,0-.11a9.38,9.38,0,0,1,3.74,3.19l-.72,3.59,2.7,2.48a9.25,9.25,0,0,1-.81,4.21,9.65,9.65,0,0,0,1.55-4.4l1.52-1.31A11.54,11.54,0,0,0,372.92,344.67Z"/><path class="cls-8" d="M356.57,348.38l-.8-3.93-2.63.22a11.25,11.25,0,0,0-1.53,4.69l2,1.73Z"/><path class="cls-8" d="M367,356l-1.53,3.36a9.54,9.54,0,0,1-4.81.39,9.68,9.68,0,0,0,5.21.22l1.73,1.05a11.52,11.52,0,0,0,4-2.91l-.61-2.57Z"/><polygon class="cls-8" points="366.86 350.06 367.19 349.84 369.06 348.57 366.87 349.13 366.63 349.19 363.03 346.57 359.44 349.18 359.19 349.13 357.41 348.76 358.87 349.84 359.19 350.08 359.21 350.04 360.56 354.19 364.9 354.19 364.89 354.2 365.2 354.44 366.71 355.61 365.8 353.93 365.67 353.69 366.85 350.04 366.86 350.06"/><path class="cls-9" d="M543.5,132.31a13,13,0,1,1,13-13A13,13,0,0,1,543.5,132.31Z"/><path class="cls-10" d="M543.5,107.86A11.48,11.48,0,1,1,532,119.33a11.47,11.47,0,0,1,11.47-11.47m0-3A14.48,14.48,0,1,0,558,119.33a14.48,14.48,0,0,0-14.47-14.47Z"/><circle class="cls-11" cx="587.95" cy="55.37" r="12.97"/><path class="cls-12" d="M588,43.89a11.48,11.48,0,1,1-11.47,11.48A11.48,11.48,0,0,1,588,43.89m0-3a14.48,14.48,0,1,0,14.48,14.48A14.49,14.49,0,0,0,588,40.89Z"/><path class="cls-9" d="M615.44,41.21a13,13,0,1,1,13-13A13,13,0,0,1,615.44,41.21Z"/><path class="cls-10" d="M615.44,16.76A11.48,11.48,0,1,1,604,28.24a11.47,11.47,0,0,1,11.47-11.48m0-3a14.48,14.48,0,1,0,14.47,14.48,14.49,14.49,0,0,0-14.47-14.48Z"/><circle class="cls-13" cx="299.93" cy="402.57" r="12.97"/><path class="cls-14" d="M299.93,391.1a11.48,11.48,0,1,1-11.47,11.47,11.48,11.48,0,0,1,11.47-11.47m0-3a14.48,14.48,0,1,0,14.48,14.47,14.48,14.48,0,0,0-14.48-14.47Z"/><circle class="cls-13" cx="340.08" cy="378.28" r="12.97"/><path class="cls-14" d="M340.08,366.81a11.47,11.47,0,1,1-11.47,11.47,11.47,11.47,0,0,1,11.47-11.47m0-3a14.47,14.47,0,1,0,14.48,14.47,14.48,14.48,0,0,0-14.48-14.47Z"/><line class="cls-15" x1="546.52" y1="145.39" x2="546.52" y2="215.59"/><polygon class="cls-9" points="540.53 213.84 546.52 224.2 552.5 213.84 540.53 213.84"/><line class="cls-15" x1="360.68" y1="80.89" x2="357.24" y2="36.82"/><polygon class="cls-9" points="363.34 38.1 356.57 28.24 351.41 39.03 363.34 38.1"/><path class="cls-15" d="M546.52,234.49c-43.25,129.37-156.8,43-136.79-80.2"/><polygon class="cls-9" points="415.39 157.07 411.3 145.83 403.61 154.99 415.39 157.07"/><path class="cls-16" d="M569.79,60.89c-37.69,2.74-63.32,43.41-72.57,60.72"/><polygon class="cls-17" points="492.73 117.37 493.39 129.32 503.41 122.78 492.73 117.37"/><path class="cls-16" d="M502.29,134.76c1.24,24.74,28,66,39.26,82.41"/><polygon class="cls-17" points="535.67 219.14 546.52 224.2 545.48 212.28 535.67 219.14"/><path class="cls-18" d="M340.08,358.25C351.75,283,418.39,227.41,440.31,211"/><polygon class="cls-13" points="442.5 216.89 447.3 205.93 435.41 207.25 442.5 216.89"/><path class="cls-18" d="M483.28,113.13C478,19.36,553.4,10,579.35,9.6"/><polygon class="cls-13" points="577.5 15.61 587.96 9.8 577.69 3.65 577.5 15.61"/><line class="cls-19" x1="380.01" y1="339" x2="529.56" y2="246.59"/><polygon class="cls-13" points="531.22 252.6 536.88 242.07 524.92 242.42 531.22 252.6"/><line class="cls-20" x1="532.7" y1="228.54" x2="480.15" y2="213.35"/><polygon class="cls-9" points="483.49 208.09 471.88 210.96 480.17 219.58 483.49 208.09"/><line class="cls-20" x1="407.39" y1="131.04" x2="358.62" y2="97.06"/><polygon class="cls-9" points="363.48 93.16 351.56 92.14 356.64 102.97 363.48 93.16"/><line class="cls-21" x1="482.47" y1="124.72" x2="428.12" y2="135.65"/><polygon class="cls-17" points="428.65 129.44 419.68 137.35 431.01 141.18 428.65 129.44"/><line class="cls-19" x1="452.33" y1="197.56" x2="484.04" y2="142.23"/><polygon class="cls-13" points="488.37 146.73 488.33 134.76 477.98 140.78 488.37 146.73"/><text class="cls-22" transform="translate(388.48 321.47)">2</text><text class="cls-22" transform="translate(346.34 282.09)">3</text><text class="cls-23" transform="translate(506.25 215.12)">4</text><text class="cls-22" transform="translate(477.25 180.03)">6</text><text class="cls-23" transform="translate(471.74 321.47)">7</text><text class="cls-24" transform="translate(512.42 78.31)">5</text><text class="cls-24" transform="translate(445.86 119.33)">8</text><text class="cls-23" transform="translate(392.28 104.67)">9</text><text class="cls-25" transform="matrix(0.5, -0.87, 0.87, 0.5, 478.3, 63.99)">Off</text><text class="cls-26" transform="translate(369.52 63.71) rotate(0.13)">Off</text><text class="cls-27" transform="translate(510 148.77) rotate(58.77)">Next</text><text class="cls-23" transform="translate(555.54 180.03)">1</text><path class="cls-6" d="M277,146a13,13,0,1,1,13-13A13,13,0,0,1,277,146Z"/><path class="cls-7" d="M277,121.52A11.47,11.47,0,1,1,265.52,133,11.46,11.46,0,0,1,277,121.52m0-3A14.47,14.47,0,1,0,291.46,133,14.48,14.48,0,0,0,277,118.52Z"/><path class="cls-8" d="M280.79,127.07l-.1.17-1.23,2,1.82-1.53.23-.2,3.11.36a9.34,9.34,0,0,1,1.81,3.73,9.65,9.65,0,0,0-1.31-4.32l.45-1.94a11.65,11.65,0,0,0-4-2.91l-2.26,1.38Z"/><path class="cls-8" d="M267.1,138.8l2,.16a9.8,9.8,0,0,0,4.47,2.93l1,2.3a11.43,11.43,0,0,0,4.94,0l.77-1.83a9.8,9.8,0,0,0,4.13-3.32,9.43,9.43,0,0,1-4.18,2.54L277.42,140l0-.25-.39-2.33-.39,2.33,0,.25-3.06,1.72.05.12a9.35,9.35,0,0,1-3.75-3.2l.73-3.58-2.7-2.48a9.3,9.3,0,0,1,.81-4.22,9.57,9.57,0,0,0-1.55,4.41l-1.52,1.3A11.44,11.44,0,0,0,267.1,138.8Z"/><path class="cls-8" d="M283.45,135.09l.79,3.93,2.64-.22a11.44,11.44,0,0,0,1.53-4.7l-2-1.72Z"/><path class="cls-8" d="M273,127.49l1.53-3.35a9.31,9.31,0,0,1,4.81-.39,9.78,9.78,0,0,0-5.21-.23l-1.73-1a11.65,11.65,0,0,0-4,2.91L269,128Z"/><polygon class="cls-8" points="273.15 133.4 272.83 133.63 270.96 134.89 273.15 134.34 273.39 134.28 276.99 136.89 280.57 134.29 280.83 134.34 282.61 134.71 281.15 133.63 280.83 133.39 280.81 133.43 279.46 129.28 275.12 129.28 275.13 129.27 274.81 129.02 273.31 127.86 274.22 129.53 274.35 129.78 273.17 133.43 273.15 133.4"/><path class="cls-9" d="M96.52,377.1a13,13,0,1,1,13-13A13,13,0,0,1,96.52,377.1Z"/><path class="cls-10" d="M96.52,352.66a11.47,11.47,0,1,1-11.47,11.47,11.48,11.48,0,0,1,11.47-11.47m0-3A14.47,14.47,0,1,0,111,364.13a14.48,14.48,0,0,0-14.47-14.47Z"/><circle class="cls-11" cx="52.06" cy="428.1" r="12.97"/><path class="cls-12" d="M52.06,416.63A11.47,11.47,0,1,1,40.59,428.1a11.47,11.47,0,0,1,11.47-11.47m0-3A14.47,14.47,0,1,0,66.54,428.1a14.48,14.48,0,0,0-14.48-14.47Z"/><path class="cls-9" d="M24.58,468.2a13,13,0,1,1,13-13A13,13,0,0,1,24.58,468.2Z"/><path class="cls-10" d="M24.58,443.76a11.47,11.47,0,1,1-11.47,11.47,11.47,11.47,0,0,1,11.47-11.47m0-3a14.47,14.47,0,1,0,14.47,14.47,14.48,14.48,0,0,0-14.47-14.47Z"/><path class="cls-13" d="M336,91.28a13,13,0,1,1,13-13A13,13,0,0,1,336,91.28Z"/><path class="cls-14" d="M336,66.84a11.47,11.47,0,1,1-11.48,11.47A11.47,11.47,0,0,1,336,66.84m0-3a14.47,14.47,0,1,0,14.47,14.47A14.49,14.49,0,0,0,336,63.84Z"/><circle class="cls-13" cx="299.93" cy="105.19" r="12.97"/><path class="cls-14" d="M299.93,93.71a11.48,11.48,0,1,1-11.47,11.48,11.48,11.48,0,0,1,11.47-11.48m0-3a14.48,14.48,0,1,0,14.48,14.48,14.49,14.49,0,0,0-14.48-14.48Z"/><line class="cls-15" x1="93.5" y1="338.08" x2="93.5" y2="267.87"/><polygon class="cls-9" points="99.48 269.62 93.5 259.26 87.52 269.62 99.48 269.62"/><line class="cls-15" x1="279.34" y1="402.57" x2="283.54" y2="446.66"/><polygon class="cls-9" points="277.42 445.48 284.36 455.23 289.33 444.35 277.42 445.48"/><path class="cls-15" d="M93.5,249c43.25-129.38,156.8-43,136.79,80.19"/><polygon class="cls-9" points="224.62 326.39 228.71 337.64 236.41 328.48 224.62 326.39"/><path class="cls-16" d="M70.23,422.57c37.69-2.74,63.31-43.4,72.57-60.72"/><polygon class="cls-17" points="147.28 366.1 146.63 354.15 136.61 360.69 147.28 366.1"/><path class="cls-16" d="M137.73,348.7c-1.25-24.73-28-66-39.27-82.41"/><polygon class="cls-17" points="104.34 264.32 93.5 259.26 94.54 271.18 104.34 264.32"/><path class="cls-18" d="M299.93,125.21c-11.66,75.28-78.3,130.85-100.23,147.3"/><polygon class="cls-13" points="197.52 266.57 192.71 277.53 204.61 276.21 197.52 266.57"/><path class="cls-18" d="M156.74,370.34C162,464.11,86.62,473.42,60.67,473.86"/><polygon class="cls-13" points="62.52 467.85 52.06 473.67 62.33 479.82 62.52 467.85"/><line class="cls-19" x1="260.01" y1="144.46" x2="110.46" y2="236.87"/><polygon class="cls-13" points="108.8 230.86 103.13 241.4 115.09 241.04 108.8 230.86"/><line class="cls-20" x1="107.32" y1="254.93" x2="159.87" y2="270.12"/><polygon class="cls-9" points="156.53 275.38 168.14 272.51 159.85 263.88 156.53 275.38"/><line class="cls-20" x1="232.63" y1="352.43" x2="281.4" y2="386.4"/><polygon class="cls-9" points="276.54 390.31 288.46 391.32 283.38 380.49 276.54 390.31"/><line class="cls-21" x1="157.55" y1="358.74" x2="211.9" y2="347.81"/><polygon class="cls-17" points="211.36 354.02 220.34 346.11 209 342.29 211.36 354.02"/><line class="cls-19" x1="187.69" y1="285.9" x2="155.97" y2="341.23"/><polygon class="cls-13" points="151.65 336.74 151.69 348.7 162.04 342.69 151.65 336.74"/><text class="cls-22" transform="translate(241.11 172.52)">2</text><text class="cls-22" transform="translate(283.25 211.89)">3</text><text class="cls-23" transform="translate(123.34 278.87)">4</text><text class="cls-22" transform="translate(152.34 313.96)">6</text><text class="cls-23" transform="translate(157.86 172.52)">7</text><text class="cls-24" transform="translate(117.17 415.67)">5</text><text class="cls-24" transform="translate(183.73 374.65)">8</text><text class="cls-23" transform="translate(237.32 389.31)">9</text><text class="cls-25" transform="matrix(-0.5, 0.87, -0.87, -0.5, 161.72, 419.47)">Off</text><text class="cls-26" transform="translate(250.1 429.27) rotate(-1.74)">Off</text><text class="cls-27" transform="translate(130.01 334.69) rotate(-121.23)">Next</text><text class="cls-23" transform="translate(74.06 313.96)">1</text><line class="cls-28" x1="181.99" y1="65.61" x2="228.44" y2="65.61"/><polygon points="227.56 68.6 232.74 65.61 227.56 62.61 227.56 68.6"/><line class="cls-29" x1="181.98" y1="78.83" x2="228.44" y2="78.83"/><polygon points="227.56 81.82 232.74 78.83 227.56 75.83 227.56 81.82"/><text class="cls-30" transform="translate(154.21 68.94)">Run</text><text class="cls-31" transform="translate(127.89 81.97)">P<tspan class="cls-32" x="5.05" y="0">ass / Shot</tspan></text><text class="cls-33" transform="translate(298.93 65.94)">A</text><text class="cls-33" transform="translate(324.49 428.05)">D</text><text class="cls-33" transform="translate(579.69 95.11)">E</text><text class="cls-33" transform="translate(584.95 237.54)">F</text><text class="cls-33" transform="translate(52.06 399.04)">B</text><text class="cls-33" transform="translate(52.06 237.54)">C</text></g></g></svg>