<svg id="Layer_1" data-name="Layer 1" xmlns="http://www.w3.org/2000/svg" viewBox="0 0 576 576"><defs><style>.cls-1{fill:#369e47;}.cls-2{fill:#e7e515;}.cls-11,.cls-3,.cls-6{fill:#fff;}.cls-4{fill:#3c5caa;}.cls-12,.cls-5{fill:#1f3166;}.cls-6{font-size:20.38px;}.cls-11,.cls-12,.cls-6{font-family:RedHatDisplay-Black, Red Hat Display;font-weight:800;}.cls-10,.cls-14,.cls-7,.cls-8,.cls-9{fill:none;stroke-miterlimit:10;stroke-width:3px;}.cls-7{stroke:#fff;}.cls-10,.cls-14,.cls-8,.cls-9{stroke:#1f3166;}.cls-9{stroke-dasharray:8.08 8.08;}.cls-10{stroke-dasharray:8 8;}.cls-11,.cls-12{font-size:24px;}.cls-13{opacity:0.5;}.cls-14{stroke-dasharray:9.8 9.8;}</style></defs><rect class="cls-1" width="576" height="576"/><path class="cls-2" d="M269.82,92.75a3.57,3.57,0,1,1-3.56,3.57,3.57,3.57,0,0,1,3.56-3.57m0-5a8.57,8.57,0,1,0,8.57,8.57,8.57,8.57,0,0,0-8.57-8.57Z"/><path class="cls-2" d="M428.79,365.32a3.57,3.57,0,1,1-3.57,3.57,3.57,3.57,0,0,1,3.57-3.57m0-5a8.57,8.57,0,1,0,8.56,8.57,8.57,8.57,0,0,0-8.56-8.57Z"/><path class="cls-2" d="M110.86,365.32a3.57,3.57,0,1,1-3.57,3.57,3.57,3.57,0,0,1,3.57-3.57m0-5a8.57,8.57,0,1,0,8.56,8.57,8.57,8.57,0,0,0-8.56-8.57Z"/><path class="cls-3" d="M453.13,357.56A11.56,11.56,0,1,1,464.7,346,11.57,11.57,0,0,1,453.13,357.56Z"/><path d="M453.13,335.94A10.06,10.06,0,1,1,443.07,346a10.06,10.06,0,0,1,10.06-10.06m0-3A13.06,13.06,0,1,0,466.2,346a13.08,13.08,0,0,0-13.07-13.06Z"/><circle class="cls-4" cx="478.79" cy="377.45" r="17.09"/><path class="cls-5" d="M478.79,361.86a15.59,15.59,0,1,1-15.59,15.59,15.59,15.59,0,0,1,15.59-15.59m0-3a18.59,18.59,0,1,0,18.59,18.59,18.61,18.61,0,0,0-18.59-18.59Z"/><text class="cls-6" transform="translate(471.11 384.93)">A</text><circle class="cls-4" cx="511.61" cy="474.1" r="17.09"/><path class="cls-5" d="M511.61,458.51A15.59,15.59,0,1,1,496,474.1a15.59,15.59,0,0,1,15.59-15.59m0-3A18.59,18.59,0,1,0,530.2,474.1a18.61,18.61,0,0,0-18.59-18.59Z"/><text class="cls-6" transform="translate(504.23 481.57)">X</text><circle class="cls-4" cx="527.2" cy="518.5" r="17.09"/><path class="cls-5" d="M527.2,502.91a15.59,15.59,0,1,1-15.59,15.59,15.59,15.59,0,0,1,15.59-15.59m0-3a18.59,18.59,0,1,0,18.59,18.59,18.61,18.61,0,0,0-18.59-18.59Z"/><text class="cls-6" transform="translate(519.83 525.98)">X</text><path class="cls-4" d="M305.44,89.25a17.09,17.09,0,1,1,17.09-17.09A17.11,17.11,0,0,1,305.44,89.25Z"/><path class="cls-5" d="M305.44,56.57a15.59,15.59,0,1,1-15.59,15.59,15.59,15.59,0,0,1,15.59-15.59m0-3A18.59,18.59,0,1,0,324,72.16a18.61,18.61,0,0,0-18.59-18.59Z"/><text class="cls-6" transform="translate(298.25 79.63)">B</text><circle class="cls-4" cx="65.53" cy="377.45" r="17.09"/><path class="cls-5" d="M65.53,361.86a15.59,15.59,0,1,1-15.59,15.59,15.59,15.59,0,0,1,15.59-15.59m0-3a18.59,18.59,0,1,0,18.59,18.59,18.61,18.61,0,0,0-18.59-18.59Z"/><text class="cls-6" transform="translate(58.23 384.93)">C</text><line class="cls-7" x1="443.07" y1="324.23" x2="328.64" y2="114.64"/><polygon class="cls-3" points="321.03 100.7 339.78 115.96 329.21 115.69 323.73 124.73 321.03 100.7"/><path class="cls-8" d="M280,64.16s-1.4-.57-3.79-1.27"/><path class="cls-9" d="M268.38,61.08c-7.68-1.28-18.08-1.62-27.76,2.63"/><path class="cls-8" d="M237,65.54a36.23,36.23,0,0,0-3.34,2.2"/><polygon class="cls-5" points="223.13 79.63 231.7 57.02 234.77 67.14 245.08 69.49 223.13 79.63"/><path class="cls-10" d="M478.57,350.19s-9.39-149.53-110.72-235.44"/><polygon class="cls-5" points="355.4 104.88 378.57 111.81 368.69 115.6 367.09 126.05 355.4 104.88"/><text class="cls-11" transform="translate(359.78 241.68)">1</text><text class="cls-12" transform="translate(443.07 191.53)">2</text><text class="cls-12" transform="translate(256.37 43.55)">3</text><g class="cls-13"><line class="cls-7" x1="223.13" y1="96.32" x2="83.26" y2="336.46"/><polygon class="cls-3" points="75.27 350.19 78.63 326.24 83.86 335.43 94.44 335.45 75.27 350.19"/><line class="cls-7" x1="131.05" y1="416.92" x2="425.47" y2="409.81"/><polygon class="cls-3" points="441.35 409.43 419.19 419.11 424.29 409.84 418.75 400.83 441.35 409.43"/></g><g class="cls-13"><path class="cls-8" d="M68.27,403.34a28.7,28.7,0,0,0,3.39,2.1"/><path class="cls-14" d="M80.62,409.39a99.58,99.58,0,0,0,14.17,3.89"/><path class="cls-8" d="M99.62,414.15q1.92.3,4,.57"/><polygon class="cls-5" points="119.42 415.92 96.36 423.19 102.41 414.51 97.86 404.96 119.42 415.92"/><path class="cls-10" d="M494.38,446.47s-3.41-11.26-18-23"/><polygon class="cls-5" points="463.2 414.63 486.84 419.73 477.29 424.27 476.5 434.82 463.2 414.63"/><path class="cls-10" d="M207.22,92.33S84.6,196.29,69.66,305.05"/><polygon class="cls-5" points="68.27 320.88 61.34 297.71 69.93 303.89 79.55 299.5 68.27 320.88"/><path class="cls-10" d="M137.74,436.47S359.3,537.8,466.81,536.35"/><polygon class="cls-5" points="482.66 535.26 460.85 545.71 465.62 536.26 459.77 527.45 482.66 535.26"/></g></svg>