<svg id="Layer_1" data-name="Layer 1" xmlns="http://www.w3.org/2000/svg" viewBox="0 0 576 576"><defs><style>.cls-1{fill:#369e47;}.cls-2{fill:#e7e515;}.cls-11,.cls-3,.cls-6{fill:#fff;}.cls-4{fill:#3c5caa;}.cls-12,.cls-5{fill:#1f3166;}.cls-6{font-size:20.38px;}.cls-11,.cls-12,.cls-6{font-family:RedHatDisplay-Black, Red Hat Display;font-weight:800;}.cls-10,.cls-14,.cls-7,.cls-8,.cls-9{fill:none;stroke-miterlimit:10;stroke-width:3px;}.cls-7{stroke:#fff;}.cls-10,.cls-14,.cls-8,.cls-9{stroke:#1f3166;}.cls-9{stroke-dasharray:7.74 7.74;}.cls-10{stroke-dasharray:8 8;}.cls-11,.cls-12{font-size:24px;}.cls-13{opacity:0.5;}.cls-14{stroke-dasharray:8.45 8.45;}</style></defs><rect class="cls-1" width="576" height="576"/><path class="cls-2" d="M269.82,92.75a3.57,3.57,0,1,1-3.56,3.57,3.57,3.57,0,0,1,3.56-3.57m0-5a8.57,8.57,0,1,0,8.57,8.57,8.57,8.57,0,0,0-8.57-8.57Z"/><path class="cls-2" d="M428.79,365.32a3.57,3.57,0,1,1-3.57,3.57,3.57,3.57,0,0,1,3.57-3.57m0-5a8.57,8.57,0,1,0,8.56,8.57,8.57,8.57,0,0,0-8.56-8.57Z"/><path class="cls-2" d="M110.86,365.32a3.57,3.57,0,1,1-3.57,3.57,3.57,3.57,0,0,1,3.57-3.57m0-5a8.57,8.57,0,1,0,8.56,8.57,8.57,8.57,0,0,0-8.56-8.57Z"/><path class="cls-3" d="M453.13,357.56A11.56,11.56,0,1,1,464.7,346,11.57,11.57,0,0,1,453.13,357.56Z"/><path d="M453.13,335.94A10.06,10.06,0,1,1,443.07,346a10.06,10.06,0,0,1,10.06-10.06m0-3A13.06,13.06,0,1,0,466.2,346a13.08,13.08,0,0,0-13.07-13.06Z"/><circle class="cls-4" cx="478.79" cy="377.45" r="17.09"/><path class="cls-5" d="M478.79,361.86a15.59,15.59,0,1,1-15.59,15.59,15.59,15.59,0,0,1,15.59-15.59m0-3a18.59,18.59,0,1,0,18.59,18.59,18.61,18.61,0,0,0-18.59-18.59Z"/><text class="cls-6" transform="translate(471.11 384.93)">A</text><circle class="cls-4" cx="511.61" cy="474.1" r="17.09"/><path class="cls-5" d="M511.61,458.51A15.59,15.59,0,1,1,496,474.1a15.59,15.59,0,0,1,15.59-15.59m0-3A18.59,18.59,0,1,0,530.2,474.1a18.61,18.61,0,0,0-18.59-18.59Z"/><text class="cls-6" transform="translate(504.23 481.57)">X</text><circle class="cls-4" cx="527.2" cy="518.5" r="17.09"/><path class="cls-5" d="M527.2,502.91a15.59,15.59,0,1,1-15.59,15.59,15.59,15.59,0,0,1,15.59-15.59m0-3a18.59,18.59,0,1,0,18.59,18.59,18.61,18.61,0,0,0-18.59-18.59Z"/><text class="cls-6" transform="translate(519.83 525.98)">X</text><path class="cls-4" d="M305.44,89.25a17.09,17.09,0,1,1,17.09-17.09A17.11,17.11,0,0,1,305.44,89.25Z"/><path class="cls-5" d="M305.44,56.57a15.59,15.59,0,1,1-15.59,15.59,15.59,15.59,0,0,1,15.59-15.59m0-3A18.59,18.59,0,1,0,324,72.16a18.61,18.61,0,0,0-18.59-18.59Z"/><text class="cls-6" transform="translate(298.25 79.63)">B</text><circle class="cls-4" cx="65.53" cy="377.45" r="17.09"/><path class="cls-5" d="M65.53,361.86a15.59,15.59,0,1,1-15.59,15.59,15.59,15.59,0,0,1,15.59-15.59m0-3a18.59,18.59,0,1,0,18.59,18.59,18.61,18.61,0,0,0-18.59-18.59Z"/><text class="cls-6" transform="translate(58.23 384.93)">C</text><line class="cls-7" x1="443.07" y1="324.23" x2="328.64" y2="114.64"/><polygon class="cls-3" points="321.03 100.7 339.78 115.96 329.21 115.69 323.73 124.73 321.03 100.7"/><path class="cls-8" d="M280,64.16A29.92,29.92,0,0,0,276.66,62"/><path class="cls-9" d="M269.61,58.86c-16.24-5.71-49-7.12-80,52.11"/><path class="cls-8" d="M187.86,114.42c-.59,1.18-1.18,2.37-1.77,3.59"/><polygon class="cls-5" points="179.59 132.51 180.54 108.35 186.66 116.97 197.19 115.93 179.59 132.51"/><path class="cls-10" d="M478.57,350.19s-.79-98-58.08-180"/><polygon class="cls-5" points="411.01 157.42 431.65 170.03 421.13 171.18 416.91 180.87 411.01 157.42"/><text class="cls-11" transform="translate(359.78 241.68)">1</text><text class="cls-11" transform="translate(269.82 182.75)">5</text><text class="cls-11" transform="translate(372.99 100.7)">3</text><text class="cls-12" transform="translate(457.3 201.58)">2</text><text class="cls-12" transform="translate(256.37 43.55)">4</text><line class="cls-7" x1="328.61" y1="87.75" x2="388.04" y2="138.73"/><polygon class="cls-3" points="400.1 149.07 377.16 141.44 387.14 137.96 389.06 127.56 400.1 149.07"/><line class="cls-7" x1="397.59" y1="160.42" x2="195.44" y2="146.19"/><polygon class="cls-3" points="179.59 145.07 202.56 137.52 196.62 146.27 201.28 155.77 179.59 145.07"/><g class="cls-13"><line class="cls-7" x1="171.68" y1="147.23" x2="84.26" y2="331.65"/><polygon class="cls-3" points="77.45 346 78.78 321.86 84.77 330.57 95.3 329.69 77.45 346"/><path class="cls-10" d="M162.85,140.05s-59.38-1-82,89"/><polygon class="cls-5" points="77.45 244.61 73.37 220.77 81.15 227.94 91.23 224.73 77.45 244.61"/><line class="cls-7" x1="60.71" y1="346" x2="70.2" y2="278.85"/><polygon class="cls-3" points="72.43 263.12 78.35 286.56 70.04 280.02 60.24 284 72.43 263.12"/><line class="cls-7" x1="81.12" y1="253.8" x2="188.47" y2="396.73"/><polygon class="cls-3" points="198.01 409.43 177.25 397.02 187.76 395.78 191.88 386.04 198.01 409.43"/></g><g class="cls-13"><path class="cls-8" d="M66.57,403s.46,1.41,1.47,3.72"/><path class="cls-14" d="M71.87,414.25c10.72,18.47,39.31,50.06,99.67,17.28"/><path class="cls-8" d="M175.24,429.46c1.14-.65,2.29-1.33,3.45-2"/><polygon class="cls-5" points="191.99 418.73 178.12 438.54 177.63 427.98 168.21 423.16 191.99 418.73"/><line class="cls-7" x1="207.81" y1="416.17" x2="411.64" y2="405.99"/><polygon class="cls-3" points="427.51 405.19 405.6 415.44 410.45 406.05 404.69 397.18 427.51 405.19"/><path class="cls-10" d="M205.65,427.35s27.19,52.79,117.24,30.18"/><polygon class="cls-5" points="338.17 453.14 319.1 468.01 321.73 457.77 314.14 450.4 338.17 453.14"/><line class="cls-7" x1="435.42" y1="419.95" x2="371.76" y2="443.34"/><polygon class="cls-3" points="356.85 448.81 374.71 432.51 372.88 442.93 381.02 449.68 356.85 448.81"/><line class="cls-7" x1="344.54" y1="445.56" x2="403.91" y2="326.72"/><polygon class="cls-3" points="411.01 312.51 409.19 336.63 403.38 327.79 392.83 328.45 411.01 312.51"/></g><g class="cls-13"><path class="cls-10" d="M494.38,446.47s-14.08-18-28.79-28.19"/><polygon class="cls-5" points="451.13 411.68 475.27 413.19 466.5 419.11 467.31 429.66 451.13 411.68"/></g></svg>